<svg width="16" height="17" viewBox="0 0 16 17" fill="none" xmlns="http://www.w3.org/2000/svg">
<g clip-path="url(#clip0_0_38)">
<g clip-path="url(#clip1_0_38)">
<g clip-path="url(#clip2_0_38)">
<path d="M7.87095 15.7866C11.8617 15.7866 15.0968 12.5515 15.0968 8.56077C15.0968 4.57006 11.8617 1.33496 7.87095 1.33496C3.88025 1.33496 0.645142 4.57006 0.645142 8.56077C0.645142 12.5515 3.88025 15.7866 7.87095 15.7866Z" stroke="#999999" stroke-width="1.29032" stroke-miterlimit="10" stroke-linecap="round"/>
<path d="M7.87097 1.33496C7.87097 1.33496 10.4723 2.52206 10.4723 8.56077C10.4723 14.5995 7.87097 15.7866 7.87097 15.7866" stroke="#999999" stroke-width="1.29032" stroke-linecap="round" stroke-linejoin="round"/>
<path d="M7.87149 1.33496C7.87149 1.33496 5.2702 2.52206 5.2702 8.56077C5.2702 14.5995 7.87149 15.7866 7.87149 15.7866" stroke="#999999" stroke-width="1.29032" stroke-linecap="round" stroke-linejoin="round"/>
<path d="M14.3954 5.47021C13.3223 6.18041 11.3239 6.97163 7.72697 6.97163C4.36284 6.97163 2.39949 6.27951 1.28052 5.60905" stroke="#999999" stroke-width="1.29032" stroke-miterlimit="10" stroke-linecap="round"/>
<path d="M15.0116 9.06396C14.1822 9.83351 12.1729 11.0423 7.72694 11.0423C3.7801 11.0423 1.75945 10.0905 0.773132 9.33906" stroke="#999999" stroke-width="1.29032" stroke-linecap="round" stroke-linejoin="round"/>
</g>
</g>
</g>
<defs>
<clipPath id="clip0_0_38">
<rect width="16" height="16" fill="white" transform="translate(0 0.689941)"/>
</clipPath>
<clipPath id="clip1_0_38">
<rect width="16" height="16" fill="white" transform="translate(0 0.689941)"/>
</clipPath>
<clipPath id="clip2_0_38">
<rect width="16" height="16" fill="white" transform="translate(0 0.689941)"/>
</clipPath>
</defs>
</svg>
