<?xml version="1.0" encoding="utf-8"?>
<!-- Generator: Adobe Illustrator 24.0.1, SVG Export Plug-In . SVG Version: 6.00 Build 0)  -->
<svg version="1.1" id="Layer_1" xmlns="http://www.w3.org/2000/svg" xmlns:xlink="http://www.w3.org/1999/xlink" x="0px" y="0px"
	 viewBox="0 0 444.84 65.27" style="enable-background:new 0 0 444.84 65.27;" xml:space="preserve">
<style type="text/css">
	.st0{clip-path:url(#SVGID_2_);fill:#EA1D25;}
</style>
<g>
	<defs>
		<rect id="SVGID_1_" x="0.18" y="-0.05" width="444.84" height="65.28"/>
	</defs>
	<clipPath id="SVGID_2_">
		<use xlink:href="#SVGID_1_"  style="overflow:visible;"/>
	</clipPath>
	<path class="st0" d="M46.43,61.76l-1.19-7.5c-2.13,3-4.73,5.26-7.78,6.77c-3.06,1.51-6.58,2.27-10.58,2.27
		c-3.77,0-7.23-0.68-10.41-2.03c-3.17-1.36-6.02-3.39-8.55-6.1c-2.53-2.71-4.45-5.93-5.77-9.66c-1.32-3.73-1.97-7.77-1.97-12.14
		c0-9.5,2.72-17.13,8.16-22.87c5.44-5.74,12.67-8.61,21.7-8.61c6.79,0,12.41,1.71,16.84,5.12c4.44,3.41,7.26,8.21,8.47,14.4H41.1
		c-0.95-2.48-2.4-4.36-4.36-5.65c-1.96-1.29-4.34-1.93-7.13-1.93c-4.24,0-7.68,1.74-10.33,5.23c-2.65,3.49-3.97,8.08-3.97,13.76
		c0,5.61,1.3,10.08,3.89,13.43c2.59,3.35,6.06,5.02,10.41,5.02c3.47,0,6.35-0.88,8.63-2.63c2.28-1.75,3.69-4.22,4.25-7.41H29.53
		V30.05h26.22v31.71H46.43z"/>
	<polygon class="st0" points="104.74,61.76 104.74,3.59 119.67,3.59 119.67,49.16 147.83,49.16 147.83,61.76 	"/>
	<polygon class="st0" points="149.76,61.76 149.76,3.59 194.9,3.59 194.9,15.51 164.64,15.51 164.64,26.69 190.94,26.69 
		190.94,38.34 164.64,38.34 164.64,49.88 194.9,49.88 194.9,61.76 	"/>
	<polygon class="st0" points="57.68,61.76 57.68,3.59 102.82,3.59 102.82,15.51 72.57,15.51 72.57,26.69 98.86,26.69 98.86,38.34 
		72.57,38.34 72.57,49.88 102.82,49.88 102.82,61.76 	"/>
	<rect x="248.77" y="3.59" class="st0" width="14.85" height="58.18"/>
	<path class="st0" d="M265.54,61.76V3.59h20.5l7.66,28.32l1.86,7.31c0.26,1.08,0.58,2.53,0.95,4.35c0.26,1.24,0.44,2.08,0.51,2.53
		c0.5-2.47,1.08-5.03,1.74-7.66c0.66-2.63,1.37-5.34,2.13-8.14l7.23-26.7h20.46v58.18h-13.58V35.97l0.12-7.62
		c0-0.82,0.09-3.05,0.28-6.72c0.1-2.08,0.16-3.63,0.16-4.66l-11.18,44.79H289.6l-10.94-44.79l0.43,13.94l0.16,9.64v21.21H265.54z"/>
	<path class="st0" d="M384.53,41.38c-1,6.98-3.75,12.39-8.24,16.23c-4.49,3.85-10.29,5.77-17.4,5.77c-8.48,0-15.33-2.77-20.56-8.31
		c-5.23-5.54-7.84-12.85-7.84-21.94c0-9.37,2.64-16.88,7.94-22.51c5.29-5.64,12.4-8.45,21.33-8.45c7,0,12.74,1.85,17.2,5.55
		c4.46,3.7,7.04,8.78,7.72,15.23h-13.98c-0.66-2.76-1.95-4.86-3.87-6.28c-1.92-1.42-4.44-2.13-7.54-2.13
		c-4.16,0-7.45,1.65-9.87,4.94c-2.42,3.29-3.63,7.79-3.63,13.51c0,5.69,1.15,10.1,3.44,13.25s5.51,4.72,9.67,4.72
		c3.32,0,5.99-0.81,8.02-2.45c2.03-1.63,3.29-4,3.79-7.11H384.53z"/>
	<path class="st0" d="M386.61,32.73c0-9.43,2.6-16.89,7.82-22.39c5.21-5.5,12.31-8.25,21.29-8.25c8.98,0,16.11,2.75,21.39,8.25
		c5.28,5.5,7.92,12.97,7.92,22.39c0,9.4-2.64,16.86-7.92,22.37c-5.28,5.52-12.41,8.27-21.39,8.27c-8.9,0-15.98-2.74-21.23-8.24
		C389.24,49.66,386.61,42.19,386.61,32.73 M401.74,32.73c0,5.95,1.2,10.5,3.61,13.65c2.41,3.15,5.86,4.72,10.37,4.72
		c4.5,0,7.98-1.58,10.43-4.74c2.45-3.16,3.67-7.7,3.67-13.63c0-5.84-1.22-10.37-3.65-13.57c-2.44-3.2-5.92-4.8-10.45-4.8
		c-4.48,0-7.92,1.59-10.35,4.76C402.95,22.3,401.74,26.84,401.74,32.73"/>
	<polygon class="st0" points="246.81,3.59 245.74,3.59 229.75,3.59 228.76,3.59 219.87,19.15 210.95,3.59 210.12,3.59 193.97,3.59 
		192.94,3.59 211.31,32.52 192.94,61.76 194,61.76 210,61.76 210.99,61.76 219.87,46.2 228.8,61.76 229.63,61.76 245.78,61.76 
		246.81,61.76 228.44,32.53 	"/>
</g>
</svg>
