<svg width="258" height="38" viewBox="0 0 258 38" fill="none" xmlns="http://www.w3.org/2000/svg">
<mask id="mask0_0_290" style="mask-type:luminance" maskUnits="userSpaceOnUse" x="0" y="0" width="258" height="39">
<path d="M258 0H0V38.0058H258V0Z" fill="white"/>
</mask>
<g mask="url(#mask0_0_290)">
<path d="M26.8243 35.9855L26.1341 31.619C24.8987 33.3656 23.3907 34.6814 21.6218 35.5605C19.847 36.4396 17.8055 36.8821 15.4856 36.8821C13.299 36.8821 11.2923 36.4862 9.44794 35.7002C7.60939 34.9084 5.95643 33.7266 4.48907 32.1488C3.02172 30.5711 1.90815 28.6964 1.14257 26.5248C0.382789 24.3532 0 21.9953 0 19.4511C0 13.9202 1.57756 9.47806 4.73267 6.13625C7.88778 2.79444 12.0811 1.12354 17.3183 1.12354C21.2564 1.12354 24.5159 2.11909 27.0852 4.10438C29.6604 6.08968 31.2959 8.88422 31.9977 12.488H23.7329C23.182 11.0442 22.341 9.94964 21.2042 9.19861C20.0674 8.44758 18.6871 8.07497 17.0689 8.07497C14.6098 8.07497 12.6146 9.08799 11.0777 11.1199C9.54073 13.1517 8.77516 15.824 8.77516 19.1309C8.77516 22.397 9.52913 25.0053 11.0313 26.9498C12.5335 28.9002 14.546 29.8724 17.0689 29.8724C19.0815 29.8724 20.7518 29.3601 22.0742 28.3413C23.3965 27.3224 24.2143 25.8844 24.5391 24.0272H17.0167V17.524H32.2239V35.9855H26.8243Z" fill="white"/>
</g>
<mask id="mask1_0_290" style="mask-type:luminance" maskUnits="userSpaceOnUse" x="0" y="0" width="258" height="39">
<path d="M258 0H0V38.0058H258V0Z" fill="white"/>
</mask>
<g mask="url(#mask1_0_290)">
<path d="M60.6431 35.9855V2.11328H69.3023V28.6498H85.6346V35.9855H60.6431Z" fill="white"/>
</g>
<mask id="mask2_0_290" style="mask-type:luminance" maskUnits="userSpaceOnUse" x="0" y="0" width="258" height="39">
<path d="M258 0H0V38.0058H258V0Z" fill="white"/>
</mask>
<g mask="url(#mask2_0_290)">
<path d="M86.7482 35.9855V2.11328H112.929V9.05889H95.3841V15.5679H110.632V22.3504H95.3841V29.0632H112.929V35.9855H86.7482Z" fill="white"/>
</g>
<mask id="mask3_0_290" style="mask-type:luminance" maskUnits="userSpaceOnUse" x="0" y="0" width="258" height="39">
<path d="M258 0H0V38.0058H258V0Z" fill="white"/>
</mask>
<g mask="url(#mask3_0_290)">
<path d="M33.3433 35.9855V2.11328H59.5237V9.05889H41.9792V15.5679H57.227V22.3504H41.9792V29.0632H59.5237V35.9855H33.3433Z" fill="white"/>
</g>
<mask id="mask4_0_290" style="mask-type:luminance" maskUnits="userSpaceOnUse" x="0" y="0" width="258" height="39">
<path d="M258 0H0V38.0058H258V0Z" fill="white"/>
</mask>
<g mask="url(#mask4_0_290)">
<path d="M152.791 2.11328H144.178V35.9855H152.791V2.11328Z" fill="white"/>
</g>
<mask id="mask5_0_290" style="mask-type:luminance" maskUnits="userSpaceOnUse" x="0" y="0" width="258" height="39">
<path d="M258 0H0V38.0058H258V0Z" fill="white"/>
</mask>
<g mask="url(#mask5_0_290)">
<path d="M153.905 35.9855V2.11328H165.794L170.237 18.6011L171.316 22.857C171.466 23.4857 171.652 24.3299 171.867 25.3895C172.017 26.1114 172.122 26.6005 172.162 26.8625C172.452 25.4244 172.789 23.934 173.172 22.4028C173.554 20.8717 173.966 19.2939 174.407 17.6638L178.6 2.1191H190.467V35.9913H182.591V20.9706L182.66 16.5343C182.66 16.0569 182.712 14.7586 182.823 12.6219C182.881 11.411 182.915 10.5086 182.915 9.9089L176.431 35.9855H167.865L161.52 9.9089L161.769 18.0247L161.862 23.6371V35.9855H153.905Z" fill="white"/>
</g>
<mask id="mask6_0_290" style="mask-type:luminance" maskUnits="userSpaceOnUse" x="0" y="0" width="258" height="39">
<path d="M258 0H0V38.0058H258V0Z" fill="white"/>
</mask>
<g mask="url(#mask6_0_290)">
<path d="M222.911 24.1204C222.331 28.1842 220.736 31.3338 218.132 33.5695C215.528 35.8051 212.164 36.9288 208.04 36.9288C203.122 36.9288 199.149 35.3161 196.116 32.0907C193.082 28.8653 191.569 24.6095 191.569 19.3173C191.569 13.8621 193.1 9.48981 196.174 6.21205C199.242 2.92845 203.366 1.29248 208.545 1.29248C212.605 1.29248 215.934 2.36954 218.521 4.52367C221.107 6.6778 222.604 9.63536 222.998 13.3905H214.89C214.507 11.7837 213.759 10.5611 212.645 9.73434C211.532 8.90762 210.07 8.49426 208.272 8.49426C205.859 8.49426 203.951 9.45488 202.548 11.3703C201.144 13.2857 200.442 15.9056 200.442 19.2358C200.442 22.5485 201.109 25.116 202.438 26.9499C203.766 28.7838 205.633 29.6979 208.046 29.6979C209.972 29.6979 211.52 29.2263 212.697 28.2715C213.875 27.3225 214.606 25.9427 214.896 24.1321H222.911V24.1204Z" fill="white"/>
</g>
<mask id="mask7_0_290" style="mask-type:luminance" maskUnits="userSpaceOnUse" x="0" y="0" width="258" height="39">
<path d="M258 0H0V38.0058H258V0Z" fill="white"/>
</mask>
<g mask="url(#mask7_0_290)">
<path d="M224.123 19.0844C224.123 13.5942 225.631 9.25106 228.659 6.04898C231.68 2.84689 235.798 1.24585 241.007 1.24585C246.215 1.24585 250.35 2.84689 253.412 6.04898C256.475 9.25106 258.006 13.6001 258.006 19.0844C258.006 24.557 256.475 28.9002 253.412 32.1081C250.35 35.3218 246.215 36.9229 241.007 36.9229C235.845 36.9229 231.738 35.3277 228.693 32.1256C225.643 28.9351 224.123 24.5861 224.123 19.0844ZM232.893 19.0844C232.893 22.5484 233.589 25.1974 234.986 27.0314C236.384 28.8653 238.385 29.7793 241.001 29.7793C243.611 29.7793 245.629 28.8595 247.05 27.0197C248.471 25.18 249.178 22.5368 249.178 19.0844C249.178 15.6843 248.471 13.047 247.062 11.184C245.646 9.32092 243.628 8.38941 241.001 8.38941C238.402 8.38941 236.407 9.3151 234.998 11.1607C233.594 13.0121 232.893 15.6494 232.893 19.0844Z" fill="white"/>
</g>
<mask id="mask8_0_290" style="mask-type:luminance" maskUnits="userSpaceOnUse" x="0" y="0" width="258" height="39">
<path d="M258 0H0V38.0058H258V0Z" fill="white"/>
</mask>
<g mask="url(#mask8_0_290)">
<path d="M143.041 2.11328H142.421H133.141H132.573L127.417 11.1723L122.237 2.11328H121.762H112.389H111.792L122.452 18.9621L111.792 35.9855H112.412H121.692H122.261L127.417 26.9265L132.596 35.9855H133.071H142.444H143.041L132.381 18.9679L143.041 2.11328Z" fill="white"/>
</g>
</svg>
