<svg width="15" height="27" viewBox="0 0 15 27" fill="none" xmlns="http://www.w3.org/2000/svg">
<path d="M0.316473 14.2409L13.1629 26.6947C13.5838 27.1025 14.2652 27.1018 14.6854 26.6926C15.1053 26.2834 15.1042 25.6206 14.6832 25.2125L2.60149 13.4999L14.6837 1.78748C15.1045 1.37932 15.1056 0.716923 14.6858 0.307707C14.4752 0.10257 14.1992 1.83734e-06 13.9233 1.81322e-06C13.648 1.78916e-06 13.3732 0.101885 13.1629 0.305597L0.316473 12.759C0.113755 12.9551 -7.02832e-07 13.2219 -7.27137e-07 13.4999C-7.51442e-07 13.778 0.11408 14.0445 0.316473 14.2409Z" fill="#DB2824"/>
</svg>
