<svg width="13" height="14" viewBox="0 0 13 14" fill="none" xmlns="http://www.w3.org/2000/svg">
<path d="M6.81833 13.4211C6.54833 13.4211 6.27835 13.4211 6.01835 13.4211C5.93835 13.4111 5.85835 13.401 5.76835 13.391C4.41835 13.241 3.21835 12.741 2.20835 11.841C0.508348 10.321 -0.221676 8.40103 0.0583235 6.14103C0.268324 4.43103 1.08833 3.04111 2.43833 1.97111C3.78833 0.89111 5.34833 0.451002 7.06833 0.611002C8.33833 0.731002 9.47833 1.21091 10.4683 2.02091C11.6983 3.03091 12.4683 4.32104 12.7483 5.90104C12.7883 6.13104 12.8183 6.371 12.8483 6.611C12.8483 6.881 12.8483 7.15105 12.8483 7.41105C12.8283 7.57105 12.8083 7.72102 12.7883 7.88102C12.6083 9.16102 12.0883 10.3009 11.2283 11.2609C10.2383 12.3709 9.00833 13.061 7.53833 13.331C7.29833 13.371 7.05833 13.3911 6.81833 13.4211ZM12.0383 7.00089C12.0383 3.90089 9.51835 1.38102 6.42835 1.38102C3.32835 1.37102 0.798344 3.90089 0.798344 7.00089C0.798344 10.0909 3.31833 12.621 6.40833 12.621C9.50833 12.631 12.0383 10.1009 12.0383 7.00089Z" fill="#595959"/>
<path d="M6.01831 2.98096C6.28831 2.98096 6.5483 2.98096 6.8183 2.98096C6.8183 3.03096 6.8183 3.0811 6.8183 3.1311C6.8183 4.3311 6.8183 5.52119 6.8183 6.72119C6.8183 6.80119 6.83832 6.86114 6.89832 6.92114C7.59832 7.62114 8.29829 8.321 8.99829 9.021C9.02829 9.051 9.06829 9.08107 9.08829 9.10107C8.88829 9.30107 8.70831 9.48114 8.51831 9.67114C8.50831 9.66114 8.47831 9.64108 8.45831 9.61108C7.66831 8.82108 6.87829 8.03097 6.08829 7.24097C6.04829 7.20097 6.0083 7.13104 6.0083 7.07104C6.0083 5.74104 6.0083 4.41105 6.0083 3.08105C6.0183 3.05105 6.01831 3.02096 6.01831 2.98096Z" fill="#595959"/>
</svg>
