<svg width="26" height="26" viewBox="0 0 26 26" fill="none" xmlns="http://www.w3.org/2000/svg">
<g clip-path="url(#clip0_0_96)">
<path fill-rule="evenodd" clip-rule="evenodd" d="M13 0C5.82029 0 0 5.82029 0 13C0 20.1797 5.82029 26 13 26C20.1797 26 26 20.1797 26 13C26 5.82029 20.1797 0 13 0ZM19.6435 9.78965C19.4841 9.17703 19.0142 8.69464 18.4175 8.53093C17.3362 8.23331 13 8.23331 13 8.23331C13 8.23331 8.66369 8.23331 7.58236 8.53093C6.9857 8.69464 6.51581 9.17703 6.35634 9.78965C6.06664 10.9 6.06664 13.2167 6.06664 13.2167C6.06664 13.2167 6.06664 15.5333 6.35634 16.6437C6.51581 17.2563 6.9857 17.7387 7.58236 17.9025C8.66369 18.2 13 18.2 13 18.2C13 18.2 17.3362 18.2 18.4175 17.9025C19.0142 17.7387 19.4841 17.2563 19.6435 16.6437C19.9333 15.5333 19.9333 13.2167 19.9333 13.2167C19.9333 13.2167 19.9333 10.9 19.6435 9.78965ZM11.7001 15.6V11.2667L15.1667 13.4334L11.7001 15.6Z" fill="#F3F3F3"/>
</g>
<defs>
<clipPath id="clip0_0_96">
<rect width="26" height="26" fill="white"/>
</clipPath>
</defs>
</svg>
